<?xml version="1.0"?>
<svg xmlns="http://www.w3.org/2000/svg" xmlns:xlink="http://www.w3.org/1999/xlink" version="1.1" id="Capa_1" x="0px" y="0px" viewBox="0 0 512 512" style="enable-background:new 0 0 512 512;" xml:space="preserve" width="512px" height="512px"><g><g>
	<g>
		<path d="M496.47,464.908h-16.532V440.36c0-4.15-3.365-7.515-7.515-7.515H455.89V263.515h24.548c4.15,0,7.515-3.365,7.515-7.515    v-64.125c0-4.15-3.365-7.515-7.515-7.515h-29.043L261.2,2.089c-2.907-2.785-7.493-2.785-10.399,0L60.604,184.36H31.562    c-4.15,0-7.515,3.365-7.515,7.515V256c0,4.15,3.365,7.515,7.515,7.515H56.11v169.331H39.577c-4.15,0-7.515,3.365-7.515,7.515    v24.548H15.53c-4.15,0-7.515,3.365-7.515,7.515v32.063c0,4.15,3.365,7.515,7.515,7.515H496.47c4.15,0,7.515-3.365,7.515-7.515    v-32.063C503.984,468.273,500.62,464.908,496.47,464.908z M39.076,248.485v-49.096H348.18c4.15,0,7.515-3.365,7.515-7.515    s-3.365-7.515-7.515-7.515H82.327L256,17.923L429.673,184.36h-44.754c-4.15,0-7.515,3.365-7.515,7.515s3.365,7.515,7.515,7.515    h88.005v49.096H39.076z M440.861,263.515v169.331h-25.049V263.515H440.861z M400.783,263.515v169.331h-25.049V263.515H400.783z     M360.705,263.515v169.331h-25.049V263.515H360.705z M320.626,263.515v169.331H191.374V263.515H320.626z M176.344,263.515v169.331    h-25.049V263.515H176.344z M136.266,263.515v169.331h-25.049V263.515H136.266z M96.188,263.515v169.331H71.139V263.515H96.188z     M47.092,447.875h417.816v17.033H47.092V447.875z M488.955,496.971H23.045v-17.033h465.91V496.971z" data-original="#000000" class="active-path" data-old_color="#000000" fill="#01B6AD"/>
	</g>
</g><g>
	<g>
		<path d="M276.841,340.064c4.15,0,7.515-3.365,7.515-7.515v-5.21c0-11.984-9.156-21.87-20.841-23.03v-8.231    c0-4.15-3.365-7.515-7.515-7.515s-7.515,3.365-7.515,7.515v8.591c-11.858,2.299-20.841,12.755-20.841,25.275    c0,14.199,11.552,25.75,25.75,25.75h5.21c5.912,0,10.721,4.809,10.721,10.721s-4.809,10.721-10.721,10.721h-7.815    c-4.475,0-8.116-3.641-8.116-8.116c0-4.15-3.365-7.515-7.515-7.515s-7.515,3.365-7.515,7.515c0,11.984,9.156,21.87,20.841,23.03    v8.231c0,4.15,3.365,7.515,7.515,7.515s7.515-3.365,7.515-7.515v-8.591c11.858-2.299,20.841-12.755,20.841-25.275    c0-14.199-11.552-25.75-25.75-25.75h-5.21c-5.912,0-10.721-4.809-10.721-10.721s4.809-10.721,10.721-10.721h7.815    c4.475,0,8.116,3.641,8.116,8.116v5.21C269.326,336.7,272.691,340.064,276.841,340.064z" data-original="#000000" class="active-path" data-old_color="#000000" fill="#01B6AD"/>
	</g>
</g><g>
	<g>
		<path d="M256,72.141c-26.242,0-47.593,21.351-47.593,47.593c0,26.242,21.351,47.593,47.593,47.593s47.593-21.351,47.593-47.593    S282.243,72.141,256,72.141z M256,152.297c-17.955,0-32.564-14.609-32.564-32.564c0-17.955,14.609-32.564,32.564-32.564    s32.564,14.609,32.564,32.564C288.564,137.689,273.956,152.297,256,152.297z" data-original="#000000" class="active-path" data-old_color="#000000" fill="#01B6AD"/>
	</g>
</g></g> </svg>
