<?xml version="1.0"?>
<svg xmlns="http://www.w3.org/2000/svg" height="512px" viewBox="0 0 512 512.00006" width="512px" class=""><g><path d="m76.699219 477.816406v8.550782c.003906 14.140624 11.457031 25.609374 25.597656 25.632812h247.46875c14.132813-.015625 25.582031-11.46875 25.597656-25.601562v-45.851563c1.027344-.664063 2.035157-1.34375 3.054688-2.023437.894531.960937 1.648437 2.007812 2.644531 2.902343 17.566406 15.671875 44.5 14.175781 60.21875-3.347656 44.761719-50.125 69.847656-114.769531 70.617188-181.964844-.722657-68.578125-27.472657-134.324219-74.835938-183.921875-47.277344-47.902344-111.09375-72.191406-189.699219-72.191406-80.34375-.0585938-155.328125 40.296875-199.535156 107.382812-44.210937 67.089844-51.714844 151.910157-19.96875 225.71875-5.148437 7.882813-10.859375 15.386719-17.09375 22.441407-15.609375 17.578125-14.0625 44.464843 3.453125 60.136719 17.515625 15.675781 44.410156 14.230468 60.152344-3.222657 1.371094-1.542969 2.636718-3.160156 3.976562-4.730469 7.523438 7.53125 15.542969 14.554688 24.003906 21.019532-16.0625 11.175781-25.644531 29.503906-25.652343 49.070312zm17.066406 8.550782v-8.550782c0-23.578125 19.085937-42.707031 42.664063-42.761718h8.535156c15.804687.007812 30.300781 8.78125 37.644531 22.777343-.1875.554688-.449219 1.136719-.613281 1.679688-1.925782 5.898437-2.90625 12.066406-2.898438 18.273437v8.617188c.03125 2.914062.5625 5.800781 1.574219 8.535156h-78.375c-4.71875-.015625-8.539063-3.851562-8.53125-8.570312zm256 8.566406h-145.066406c-4.710938-.007813-8.527344-3.824219-8.535157-8.535156v-8.617188c0-4.472656.714844-8.917969 2.117188-13.167969.40625-1.347656.882812-2.671875 1.429688-3.96875 6.800781-15.542969 22.152343-25.59375 39.121093-25.613281h8.53125c18.832031.050781 35.816407 11.324219 43.171875 28.65625.0625.175781.203125.289062.277344.457031-.019531.402344-.007812.804688.03125 1.207031.886719 3.875 4.332031 6.625 8.308594 6.628907.644531 0 1.285156-.070313 1.914062-.21875 19.917969-4.597657 39.15625-11.765625 57.230469-21.320313v35.957032c-.003906 4.710937-3.820313 8.527343-8.53125 8.535156zm-288.121094-93.851563c-9.628906 10.136719-25.484375 11.011719-36.167969 1.992188-10.492187-9.46875-11.367187-25.632813-1.960937-36.179688 4.570313-5.136719 8.785156-10.496093 12.78125-15.957031 8.429687 15.820312 18.621094 30.636719 30.371094 44.171875-1.675781 1.996094-3.300781 4.039063-5.023438 5.972656zm-36.148437-162.148437c.144531-122.476563 99.394531-221.726563 221.867187-221.867188 73.867188 0 133.605469 22.578125 177.542969 67.113282 43.871094 46.535156 68.804688 107.761718 69.925781 171.707031-.710937 63.070312-24.25 123.746093-66.253906 170.796875-9.625 10.136718-25.488281 11.011718-36.167969 1.992187-10.488281-9.460937-11.375-25.609375-1.988281-36.164062 31.308594-35.011719 49.640625-79.71875 51.921875-126.632813.109375-2.261718-.6875-4.472656-2.210938-6.148437-1.523437-1.671875-3.648437-2.675781-5.910156-2.78125-4.667968-.113281-8.597656 3.464843-8.929687 8.121093-2.09375 43.003907-18.894531 83.980469-47.59375 116.074219-10.347657 11.699219-13.472657 28.117188-8.148438 42.796875-2.386719 1.59375-4.765625 3.25-7.148437 4.738282-18.054688 10.914062-37.585938 19.167968-57.992188 24.511718-10.925781-21.492187-32.9375-35.085937-57.046875-35.230468h-8.53125c-18.339843.046874-35.640625 8.523437-46.910156 22.992187-11.28125-14.472656-28.605469-22.945313-46.957031-22.964844h-8.535156c-5.59375.011719-11.164063.8125-16.535157 2.382813-59.175781-41.464844-94.40625-109.183594-94.398437-181.4375zm0 0" data-original="#000000" class="active-path" fill="#000000"/><path d="m108.332031 202.300781c10.058594-9.105469 23.066407-14.277343 36.632813-14.566406 13.550781.367187 26.53125 5.527344 36.632812 14.566406 2.714844 2.710938 6.902344 3.28125 10.242188 1.390625 3.335937-1.890625 5.003906-5.777344 4.070312-9.496094-6.597656-23.734374-25.144531-42.277343-48.875-48.875-4.570312-1.144531-9.207031 1.632813-10.351562 6.207032-1.140625 4.570312 1.636718 9.207031 6.210937 10.351562 7.980469 1.957032 15.3125 5.957032 21.28125 11.605469-6.234375-1.859375-12.703125-2.808594-19.210937-2.816406-18.082032.332031-35.414063 7.292969-48.699219 19.566406-3.246094 3.34375-3.207031 8.679687.089844 11.976563 3.296875 3.296874 8.628906 3.335937 11.976562.089843zm0 0" data-original="#000000" class="active-path" fill="#000000"/><path d="m234.628906 203.691406c3.335938 1.890625 7.527344 1.320313 10.238282-1.390625 10.058593-9.105469 23.066406-14.277343 36.628906-14.566406 13.5625.367187 26.546875 5.535156 36.652344 14.585937 3.335937 3.328126 8.742187 3.320313 12.066406-.019531 3.328125-3.335937 3.320312-8.738281-.015625-12.066406-13.289063-12.273437-30.617188-19.234375-48.703125-19.566406-6.503906.007812-12.976563.957031-19.210938 2.816406 5.972656-5.644531 13.304688-9.640625 21.285156-11.601563 4.507813-1.195312 7.222657-5.792968 6.089844-10.320312-1.132812-4.523438-5.691406-7.304688-10.234375-6.234375-23.726562 6.601563-42.269531 25.140625-48.871093 48.867187-.929688 3.722657.734374 7.605469 4.074218 9.496094zm0 0" data-original="#000000" class="active-path" fill="#000000"/><path d="m119.746094 116.550781c9.46875.195313 18.875-1.570312 27.625-5.1875 8.871094-3.71875 16.691406-9.554687 22.785156-16.996093 6.125-7.191407 9.996094-16.03125 11.121094-25.410157.09375-.941406-.4375-1.835937-1.308594-2.203125-.871094-.371094-1.878906-.128906-2.492188.589844l-.195312.234375c-5.109375 6.210937-10.835938 11.886719-17.089844 16.941406-5.90625 4.703125-12.386718 8.632813-19.285156 11.691407-7.113281 2.855468-14.527344 4.898437-22.097656 6.097656-3.863282.753906-7.894532.871094-11.949219 1.507812-4.082031.269532-8.226563.375-12.546875.976563l-.386719.054687c-1.449219.199219-2.574219 1.355469-2.742187 2.808594-.171875 1.449219.664062 2.832031 2.023437 3.363281 4.203125 1.632813 8.507813 2.992188 12.886719 4.070313 4.503906.859375 9.070312 1.347656 13.652344 1.460937zm0 0" data-original="#000000" class="active-path" fill="#000000"/><path d="m279.269531 111.363281c8.753907 3.617188 18.160157 5.382813 27.628907 5.1875 4.582031-.117187 9.144531-.605469 13.644531-1.460937 4.378906-1.082032 8.683593-2.441406 12.886719-4.074219 1.363281-.527344 2.195312-1.910156 2.027343-3.363281-.171875-1.453125-1.300781-2.605469-2.746093-2.808594l-.386719-.054688c-4.316407-.597656-8.460938-.703124-12.542969-.972656-4.054688-.636718-8.085938-.757812-11.953125-1.511718-7.570313-1.195313-14.980469-3.242188-22.09375-6.097657-6.898437-3.058593-13.378906-6.984375-19.28125-11.6875-6.257813-5.054687-11.984375-10.734375-17.09375-16.945312l-.203125-.242188c-.613281-.71875-1.625-.957031-2.496094-.585937-.867187.371094-1.398437 1.265625-1.300781 2.207031 1.125 9.382813 4.996094 18.21875 11.121094 25.410156 6.09375 7.445313 13.917969 13.28125 22.789062 17zm0 0" data-original="#000000" class="active-path" fill="#000000"/><path d="m156 296.167969c3.332031 3.332031 8.730469 3.332031 12.0625 0l19.570312-19.566407 19.566407 19.566407c3.332031 3.332031 8.734375 3.332031 12.066406 0l19.566406-19.566407 19.566407 19.566407c3.332031 3.332031 8.734374 3.332031 12.066406 0l19.566406-19.566407 19.566406 19.566407c2.144532 2.210937 5.3125 3.09375 8.292969 2.3125 2.976563-.785157 5.304687-3.109375 6.085937-6.089844.78125-2.976563-.101562-6.144531-2.3125-8.289063l-25.601562-25.601562c-3.332031-3.332031-8.730469-3.332031-12.0625 0l-19.570312 19.566406-19.566407-19.566406c-3.332031-3.332031-8.734375-3.332031-12.066406 0l-19.566406 19.566406-19.566407-19.566406c-3.332031-3.332031-8.734374-3.332031-12.066406 0l-19.566406 19.566406-19.566406-19.566406c-3.332032-3.332031-8.734375-3.332031-12.066406 0l-25.601563 25.601562c-3.246094 3.34375-3.203125 8.675782.09375 11.972657 3.292969 3.296875 8.628906 3.339843 11.972656.09375l19.566407-19.566407zm0 0" data-original="#000000" class="active-path" fill="#000000"/></g> </svg>
