<?xml version="1.0" encoding="UTF-8"?>
<svg xmlns="http://www.w3.org/2000/svg" xmlns:xlink="http://www.w3.org/1999/xlink" viewBox="0 0 500 500" width="500px" height="500px">
<g id="surface20009308">
<path style=" stroke:none;fill-rule:nonzero;fill:rgb(100%,100%,100%);fill-opacity:1;" d="M 92.832031 40 C 74.890625 40 59.050781 52.050781 54.277344 69.355469 L 20 193.652344 L 20 195 C 20 213.335938 27.703125 229.917969 40 241.757812 L 40 430 C 40 446.449219 53.550781 460 70 460 L 430 460 C 446.449219 460 460 446.449219 460 430 L 460 241.757812 C 472.296875 229.917969 480 213.335938 480 195 L 480 193.652344 L 445.703125 69.355469 C 440.929688 52.054688 425.097656 40 407.148438 40 Z M 92.832031 60 L 148.535156 60 L 131.972656 180 L 44.511719 180 L 73.554688 74.6875 C 75.960938 65.972656 83.792969 60 92.832031 60 Z M 168.710938 60 L 240 60 L 240 180 L 152.167969 180 Z M 260 60 L 331.289062 60 L 347.832031 180 L 260 180 Z M 351.464844 60 L 407.148438 60 C 416.199219 60 424.019531 65.964844 426.425781 74.6875 L 455.488281 180 L 368.027344 180 Z M 40.644531 200 L 129.492188 200 C 126.996094 222.5625 108.261719 240 85 240 C 61.753906 240 43.144531 222.546875 40.644531 200 Z M 150.996094 200 L 239.003906 200 C 236.429688 222.476562 218.203125 240 195 240 C 171.796875 240 153.570312 222.476562 150.996094 200 Z M 260.996094 200 L 349.003906 200 C 346.429688 222.476562 328.203125 240 305 240 C 281.796875 240 263.570312 222.476562 260.996094 200 Z M 370.507812 200 L 459.355469 200 C 456.855469 222.546875 438.246094 240 415 240 C 391.738281 240 373.003906 222.5625 370.507812 200 Z M 250 227.480469 C 261.355469 246.542969 281.292969 260 305 260 C 328.296875 260 348.425781 247.484375 359.667969 228.886719 C 371.128906 247.5 391.632812 260 415 260 C 423.851562 260 432.296875 258.210938 440 254.980469 L 440 430 C 440 435.648438 435.648438 440 430 440 L 70 440 C 64.351562 440 60 435.648438 60 430 L 60 254.980469 C 67.703125 258.210938 76.148438 260 85 260 C 108.367188 260 128.871094 247.5 140.332031 228.886719 C 151.574219 247.484375 171.703125 260 195 260 C 218.707031 260 238.644531 246.542969 250 227.480469 Z M 355 290 C 319.160156 290 290 319.160156 290 355 C 290 390.839844 319.160156 420 355 420 C 390.839844 420 420 390.839844 420 355 C 420 353.308594 419.867188 351.660156 419.746094 350 L 360 350 L 360 370 L 397.246094 370 C 391.035156 387.421875 374.53125 400 355 400 C 330.191406 400 310 379.808594 310 355 C 310 330.191406 330.191406 310 355 310 C 369.960938 310 383.136719 317.410156 391.328125 328.671875 L 405.644531 314.355469 C 393.714844 299.535156 375.460938 290 355 290 Z M 355 290 "/>
</g>
</svg>
