<?xml version="1.0" encoding="UTF-8"?>
<svg xmlns="http://www.w3.org/2000/svg" xmlns:xlink="http://www.w3.org/1999/xlink" viewBox="0 0 300 300" width="300px" height="300px">
<g id="surface19847586">
<path style=" stroke:none;fill-rule:nonzero;fill:rgb(100%,0%,0%);fill-opacity:1;" d="M 269.390625 87 C 267 73.804688 255.609375 64.195312 242.390625 61.195312 C 222.609375 57 186 54 146.390625 54 C 106.804688 54 69.609375 57 49.804688 61.195312 C 36.609375 64.195312 25.195312 73.195312 22.804688 87 C 20.390625 102 18 123 18 150 C 18 177 20.390625 198 23.390625 213 C 25.804688 226.195312 37.195312 235.804688 50.390625 238.804688 C 71.390625 243 107.390625 246 147 246 C 186.609375 246 222.609375 243 243.609375 238.804688 C 256.804688 235.804688 268.195312 226.804688 270.609375 213 C 273 198 276 176.390625 276.609375 150 C 275.390625 123 272.390625 102 269.390625 87 Z M 114 192 L 114 108 L 187.195312 150 Z M 114 192 "/>
</g>
</svg>
